# xmcd
#
# Track frame offsets:
#	150
#	16611
#	55683
#	80706
#	103119
#	138839
#
# Disc length: 2133 seconds
#
# Revision: 1
# Processed by: cddbd v1.5.2PL0 Copyright (c) Steve Scherf et al.
# Submitted via: audiograbber 1.83.01
#
DISCID=40085306
DTITLE=DJ Sammy - Feel The Love - Hard2beat Promo
DYEAR=2009
DGENRE=Dance
TTITLE0=Feel The Love (Radio Edit)
TTITLE1=Feel The Love (Original Mix)
TTITLE2=Feel The Love (Buzz Junkies Remix)
TTITLE3=Feel The Love (Computer Club Remix)
TTITLE4=Feel The Love (Julian Vegas Remix)
TTITLE5=Feel The Love (Sound Selektaz Remix)
EXTD=
EXTT0=
EXTT1=
EXTT2=
EXTT3=
EXTT4=
EXTT5=
PLAYORDER=
